<?xml version="1.0" encoding="UTF-8"?>
<svg id="Layer_2" data-name="Layer 2" xmlns="http://www.w3.org/2000/svg" viewBox="0 0 122.05 122.05">
  <defs>
    <style>
      .cls-1 {
        fill: #98cb35;
      }

      .cls-2 {
        fill: #002525;
      }
    </style>
  </defs>
  <g id="Layer_1-2" data-name="Layer 1">
    <g>
      <rect class="cls-2" width="122.05" height="122.05" rx="2.47" ry="2.47"/>
      <g>
        <path class="cls-1" d="m77.92,53.29c-1.39,1.4-2.25,3.34-2.25,5.47h7.77c4.26-.04,7.7-3.5,7.7-7.77h-7.77c-2.13.02-4.05.89-5.45,2.3Z"/>
        <path class="cls-1" d="m75.12,29.36c-3.51.03-6.69,1.46-8.99,3.77-2.3,2.3-3.74,5.48-3.77,8.99h0v38.22c3.52,0,6.71-1.44,9.02-3.76,2.28-2.29,3.71-5.45,3.73-8.95h0v-17.91c0-2.12.88-4.05,2.31-5.44,1.14-1.12,2.63-1.89,4.3-2.17h6.91c.58,0,1.15-.04,1.7-.12,6.13-.8,10.86-5.9,10.86-12.06v-.58h-26.08Z"/>
        <path class="cls-1" d="m59.58,42.23v-.12h0s0,.08,0,.12Z"/>
        <path class="cls-1" d="m46.82,29.36h-.12s.08,0,.12,0h0Z"/>
        <path class="cls-1" d="m55.29,33.1c-2.28-2.28-5.43-3.71-8.91-3.73-.04,0-.08,0-.12,0h-25.4c0,7.05,5.71,12.76,12.76,12.76h5.18c.39-.08.79-.12,1.2-.12.02,0,.05,0,.07,0-.38,0-.75.04-1.12.11h2.25c1.28.24,2.42.87,3.31,1.75.89.89,1.51,2.03,1.75,3.32.08.39.12.79.12,1.2,0,.01,0,.02,0,.03,0-.39-.04-.78-.11-1.15v32.67s0,.08,0,.12c.05,6.99,5.75,12.64,12.75,12.64v-50.58s0-.08,0-.12c-.03-3.48-1.45-6.62-3.73-8.91Z"/>
        <path class="cls-1" d="m46.27,80.4h0s0-.08,0-.12v.12Z"/>
      </g>
    </g>
  </g>
</svg>